<svg width="100" height="86" viewBox="0 0 100 86" fill="none" xmlns="http://www.w3.org/2000/svg">
<g clip-path="url(#clip0_3608_1116)">
<path fill-rule="evenodd" clip-rule="evenodd" d="M10.3633 1.10721C29.4712 0.227468 43.1952 -0.212402 51.5351 -0.212402C67.0537 -0.212402 78.1913 1.54708 84.9477 5.06604C91.0003 8.2331 94.0266 13.0365 94.0266 19.4762C94.0266 23.347 93.0061 26.6021 90.9651 29.2413C88.9593 31.8453 85.8802 34.0975 81.7278 35.9977C86.9359 37.7572 90.9475 40.2556 93.7627 43.4931C97.4576 47.751 99.305 53.5925 99.305 61.0175C99.305 73.1631 92.1774 80.9653 77.9223 84.4242L77.8906 84.3287L77.5815 84.2336C76.6856 83.9578 75.9983 83.5124 75.5166 82.8956C75.0892 82.3482 74.5856 81.1103 74.2429 79.7648C73.9856 78.7543 73.8065 77.6221 73.6901 76.2702C73.6389 75.6748 73.6388 73.1555 73.69 72.5068C73.7424 71.8417 73.8325 70.9997 73.9185 70.369C74.0112 69.69 74.0397 69.1552 73.9914 69.0017C73.9719 68.9397 73.9182 68.8561 73.8722 68.8161C73.8031 68.756 73.7639 68.7434 73.6465 68.744C73.5676 68.7443 73.4321 68.7704 73.3419 68.8027C73.2525 68.8347 73.1002 68.9002 73.0034 68.9482C72.7472 69.0753 71.9865 69.5809 71.4438 69.9848C71.1847 70.1776 70.87 70.3905 70.7444 70.4578C70.3649 70.6614 69.8335 70.7908 69.3758 70.7913C69.2245 70.7914 69.1625 70.8008 69.1629 70.8235C69.1638 70.8781 72.1551 85.2819 72.1678 85.2924C72.1742 85.2978 72.5815 85.3326 73.1484 85.3777C69.8017 85.9165 66.1338 86.2595 62.1448 86.4068C58.5906 86.5476 55.8283 86.618 53.8576 86.618C51.887 86.618 50.1803 86.6004 48.7375 86.5652C47.2948 86.53 45.6409 86.4772 43.7758 86.4068C41.946 86.3716 39.9402 86.3189 37.7584 86.2485C36.8913 86.2343 36.0184 86.2143 35.1399 86.1886C35.2648 86.1725 35.3872 86.151 35.5058 86.124C36.2885 85.9457 36.6929 85.5716 36.6929 85.0259C36.6929 84.4343 36.3243 83.8422 35.8233 83.629C35.5798 83.5254 35.3676 83.5318 34.8678 83.658C34.2105 83.8239 33.8139 83.793 33.44 83.5468C33.011 83.2643 32.6832 82.6838 32.1143 81.1985C31.782 80.331 31.6204 79.6984 31.5391 78.9462C31.4892 78.4851 31.5193 77.5571 31.598 77.1278C31.7641 76.2211 32.1146 75.3593 32.5574 74.7685C33.0959 74.05 33.6115 73.5461 35.4999 71.8923C37.1895 70.4128 37.4517 70.1665 37.8342 69.7004C38.4548 68.9444 38.8004 68.3191 39.8069 66.132C40.3406 64.9722 40.5379 64.5151 40.6481 64.1832L40.7167 63.9763L41.4613 64.6637C42.1983 65.3442 42.8959 65.9414 43.5527 66.4542C44.3838 67.103 44.867 67.3791 46.3578 68.057C48.4685 69.0169 49.7364 69.4492 52.3445 70.0985C54.5784 70.6546 55.4347 70.7025 55.9607 70.3008C56.2214 70.1017 56.4002 69.5984 56.8867 67.6937C57.1566 66.6372 57.2065 66.476 57.3437 66.2164C57.5281 65.8675 57.6743 65.7563 57.9152 65.7818C58.0548 65.7966 58.6363 65.9773 58.7772 66.0497C58.8214 66.0724 58.871 66.1244 58.8873 66.1652C58.9504 66.3225 58.8418 66.5487 58.3827 67.2167C57.862 67.9744 57.7176 68.2931 57.4937 69.1786C57.0837 70.7996 56.9618 71.7227 56.961 73.2108C56.9605 74.2124 56.9844 74.551 57.1102 75.3229C57.34 76.7336 57.7677 78.087 58.5237 79.7963C58.9021 80.6519 59.0604 80.8862 59.9835 81.9574C61.1002 83.2533 61.6096 83.9088 61.8863 84.4066C62.0051 84.6204 62.0242 84.6769 62.0268 84.8235C62.0285 84.9167 62.0393 85.0063 62.0508 85.0224C62.112 85.1086 62.2607 85.1354 62.7881 85.1555C63.1312 85.1685 63.6159 85.212 64.158 85.2783C64.6194 85.3348 65.1294 85.3947 65.2913 85.4115C65.6756 85.4513 66.3922 85.453 66.616 85.4146C66.8872 85.3681 67.1481 85.2461 67.2427 85.1216C67.3148 85.0267 67.3225 84.9941 67.3225 84.7831C67.3225 84.5647 67.3153 84.5368 67.212 84.3551C66.8253 83.6748 65.5434 83.3408 64.3346 83.6054C64.1646 83.6426 63.9255 83.6794 63.8033 83.6871C63.4141 83.7118 63.3617 83.6658 62.9376 82.9285C62.4203 82.0289 62.247 81.6434 62.1311 81.1345C61.8739 80.006 61.8552 78.5716 62.0837 77.5009C62.259 76.6796 62.5939 75.8734 63.0853 75.0896C64.0539 73.5445 65.5422 71.7483 67.1567 70.1758C67.3784 69.9598 67.3851 69.9558 67.6611 69.8717C69.8712 69.1985 72.175 68.0158 73.8072 66.7165C76.1136 64.8804 77.1049 62.3551 77.0113 58.554C76.9618 56.5456 76.5918 53.0136 76.2416 51.2063C76.202 51.0022 76.0713 50.4146 75.9511 49.9007C75.6357 48.5522 75.5804 48.1095 75.5801 46.9309C75.5799 46.2022 75.6064 45.855 75.7019 45.3313C75.8307 44.6256 76.0449 44.0117 76.4097 43.3026C76.6093 42.9148 77.3665 41.6035 77.8997 40.7225C78.7351 39.342 79.1072 38.5517 79.3306 37.6838C79.4594 37.1829 79.5019 36.8635 79.5037 36.3831C79.5052 35.9548 79.4724 35.7223 79.3605 35.3703C79.348 35.3309 79.3628 35.31 79.4193 35.2876C79.4609 35.2712 79.4949 35.2451 79.4949 35.2296C79.4949 35.2142 79.4424 35.1247 79.3783 35.0307C79.1803 34.7405 79.1588 34.617 79.1971 33.9899C79.2331 33.4012 79.2469 33.2683 79.1894 33.1841C79.1671 33.1516 79.1341 33.1263 79.0875 33.0847C79.0092 33.0147 78.8734 32.9248 78.7858 32.8848C78.645 32.8206 78.5955 32.8121 78.3594 32.8119C78.104 32.8117 78.081 32.8165 77.8392 32.9207C77.5077 33.0635 77.365 33.1957 76.7719 33.9087C76.7074 33.9863 76.6202 34.0425 76.4481 34.1173C76.2762 34.1921 76.2102 34.2346 76.2036 34.2748C76.1939 34.3339 76.0311 34.4071 75.7858 34.4626C75.7129 34.4791 75.5473 34.5418 75.4178 34.602C74.3599 35.0935 73.0446 35.3914 72.1063 35.3521C71.9362 35.345 71.5418 35.2976 71.2299 35.2468C70.9179 35.196 70.4079 35.1254 70.0965 35.0898C69.219 34.9895 68.8024 34.9276 68.3234 34.8262C67.9447 34.7461 67.8336 34.7328 67.5433 34.7332C67.3002 34.7335 67.1508 34.7472 67.0134 34.7819C66.6978 34.8615 66.1184 35.0698 65.5563 35.3058C64.6235 35.6975 64.4337 35.8015 62.2593 37.1118C60.3225 38.279 59.7656 38.5528 58.9778 38.7249C58.5659 38.8149 58.2931 38.8408 57.7578 38.8408C57.3388 38.8408 57.207 38.8296 56.7075 38.7513C54.7756 38.4484 53.4868 38.3509 52.6568 38.4449C52.0856 38.5097 51.0878 38.7274 51.0878 38.7873C51.0878 38.8318 51.3027 39.27 51.4275 39.48C51.8655 40.2169 52.4746 40.8301 53.3103 41.3757C54.3484 42.0534 55.0992 42.3695 55.9828 42.5009C56.456 42.5713 57.3142 42.6122 58.0184 42.5981L58.609 42.5862L59.1831 42.4557C59.8887 42.2953 60.4969 42.1867 60.5835 42.2056C60.77 42.2463 60.6748 42.4413 60.238 42.9136C60.1045 43.0578 59.8572 43.2951 59.6883 43.4407L59.3812 43.7055L59.6168 44.0061C60.3471 44.938 60.8207 45.874 61.1421 47.0205C61.3877 47.8964 61.4667 48.4915 61.441 49.2706C61.4216 49.8574 61.3748 50.1662 61.2253 50.6943C60.8265 52.1037 59.898 53.3548 58.506 54.3584C56.9073 55.5109 55.5416 56.0415 52.9533 56.5157C51.367 56.8063 49.2411 56.8857 47.4228 56.7222C45.0624 56.51 43.6356 56.2494 42.286 55.7839C40.806 55.2735 39.3328 54.4341 38.1392 53.4213C36.2938 51.8556 35.218 49.9938 34.8768 47.7757C34.8099 47.3413 34.8012 45.9721 34.8625 45.5484C35.0553 44.2172 35.5198 43.1309 36.3727 42.0167C36.9897 41.2108 38.1893 39.9705 39.2235 39.0692C40.0869 38.3168 40.3805 38.1037 42.6245 36.6013C44.5155 35.3353 45.6109 34.5796 47.2609 33.4029C49.2214 32.0047 49.6183 31.7015 50.5445 30.8942C52.2721 29.3884 53.3365 28.2415 54.2057 26.9489C56.1174 24.1061 56.8839 20.6166 56.2976 17.4252C56.0458 16.0549 55.5742 14.7581 54.8722 13.5056C54.4907 12.8249 54.1899 12.3677 53.6864 11.7033C52.5352 10.184 51.4927 9.18182 49.4393 7.62028C47.2498 5.95529 45.5579 4.92388 43.3457 3.90548C43.03 3.76014 42.6441 3.58984 42.488 3.52701L42.2044 3.41278L42.0798 3.865C41.4526 6.14046 40.8556 7.73725 40.2258 8.82309C39.7418 9.65775 39.2258 10.3019 38.1036 11.4728C36.044 13.6217 34.491 14.9963 31.4373 17.3733C30.4276 18.1593 29.2118 19.2305 28.371 20.0749C25.8888 22.5679 23.9536 25.4205 22.8826 28.165C21.6299 31.3751 21.2135 35.0683 21.7106 38.5592C22.2234 42.1596 23.7614 45.7588 26.0758 48.7742C26.876 49.8168 27.7804 50.8288 28.8211 51.8464C30.1721 53.1674 32.1579 54.8702 33.7123 56.0405C34.0402 56.2874 34.3081 56.496 34.3076 56.504C34.3072 56.5121 34.2194 56.5526 34.1125 56.5942C33.774 56.7258 33.3346 57.0278 32.3846 57.7821C31.0012 58.8804 29.6661 60.4553 28.7135 62.1126C27.7499 63.7888 27.265 65.2995 27.1235 67.066C27.0579 67.8852 27.1087 69.7242 27.2446 71.4443C27.3903 73.2887 27.8273 75.5893 28.3801 77.4222C28.6844 78.4311 28.9289 79.1076 29.3101 79.9952C29.6005 80.6712 30.0106 81.6878 30.5855 83.157C31.1847 84.6884 31.3407 84.9929 31.6947 85.3219C32.1156 85.7133 32.8065 85.9996 33.5558 86.1363C32.7793 86.1077 31.9984 86.0747 31.2131 86.0373C28.9962 85.967 26.8144 85.8966 24.6679 85.8262C22.5213 85.7558 20.5155 85.6678 18.6504 85.5623C16.7854 85.4919 15.1315 85.4391 13.6887 85.4039C12.2459 85.3335 11.1375 85.2632 10.3633 85.1928V1.10721ZM75.9423 39.1333C76.2286 38.3702 76.391 37.6615 76.4773 36.7991C76.4875 36.697 76.4917 36.6136 76.4867 36.6138C76.4817 36.614 76.2855 36.7469 76.0507 36.9092C74.5905 37.9184 73.3212 38.5748 71.326 39.3525C69.9821 39.8763 68.8706 40.4026 67.7788 41.032C66.847 41.5691 66.2082 42.1238 65.5862 42.9358C64.5229 44.3239 64.1227 45.861 64.3961 47.5062C64.4288 47.7029 64.4613 47.8689 64.4684 47.875C64.4854 47.8898 64.8427 47.6831 65.1883 47.4585C65.6247 47.1749 66.0206 46.87 66.5478 46.4115C66.8148 46.1793 67.0767 45.9698 67.1296 45.9459C67.2388 45.8968 67.3482 45.9102 67.385 45.977C67.3986 46.0018 67.4103 46.5117 67.411 47.1101C67.4123 48.2827 67.4188 48.3487 67.59 48.9406C67.7444 49.4746 68.1121 50.4143 68.4569 51.156C68.8706 52.046 69.4656 53.1118 70.1377 54.1665C70.813 55.2262 71.1873 56.115 71.4733 57.3379C71.993 59.5597 71.769 61.8173 70.8223 63.8987C70.1379 65.4033 69.2112 66.6385 67.823 67.8963C67.661 68.043 67.5485 68.1533 67.5727 68.1413C67.597 68.1294 67.7957 68.016 68.0143 67.8894C70.1944 66.6265 71.9763 65.0994 73.1121 63.5206C74.3782 61.7608 74.8545 60.0658 74.8058 57.4936C74.7758 55.905 74.6779 55.4194 73.7991 52.4992C73.3725 51.0816 73.1832 49.8426 73.1459 48.2238C73.1247 47.3053 73.1895 45.9131 73.3002 44.9084C73.468 43.3841 73.8902 42.331 74.837 41.0753C75.4235 40.2974 75.6645 39.8739 75.9423 39.1333ZM42.0001 68.0009C42.2195 67.6694 42.2805 67.596 42.3743 67.5515C42.5434 67.4712 42.7064 67.535 42.923 67.7662C43.1032 67.9586 43.3342 68.1153 44.0375 68.5224C44.9993 69.0792 45.423 69.3125 45.9469 69.5738C46.5488 69.8739 47.7013 70.3782 48.2633 70.5872C48.7262 70.7594 49.1338 70.9331 49.2111 70.9912C49.2835 71.0454 49.2753 71.1556 49.1876 71.3059C49.1463 71.3768 49.0738 71.5224 49.0264 71.6295C48.9247 71.8591 48.687 72.2131 48.4398 72.5031C47.9657 73.0591 47.2475 73.6417 46.3042 74.2355C45.8416 74.5267 45.5049 74.7745 45.0725 75.1423C43.8665 76.1678 43.2276 77.1848 43.0352 78.385C42.9665 78.8137 42.9886 79.6615 43.0801 80.1104C43.2673 81.0278 43.5564 81.6964 44.1316 82.5417C44.7233 83.4113 44.9259 83.5982 45.3553 83.671C45.4401 83.6854 45.9399 83.706 46.4661 83.7169L47.4228 83.7365L47.5844 83.8087C47.8999 83.9496 48.2062 84.2913 48.3479 84.6602C48.4342 84.8851 48.4293 85.0082 48.3315 85.0751C48.1873 85.1738 48.0745 85.1809 46.7401 85.1749C45.884 85.1711 45.2823 85.1805 44.9501 85.203C44.6748 85.2216 44.2973 85.232 44.1111 85.2261C43.8157 85.2169 43.7533 85.2068 43.621 85.1472C43.4106 85.0523 43.3242 84.948 43.1553 84.5851C42.9978 84.2466 42.6235 83.5829 42.2012 82.8934C41.2778 81.3857 40.6311 79.9656 40.24 78.5871C39.8995 77.3869 39.7956 76.4976 39.8216 75.0063C39.8386 74.0357 39.8729 73.6726 40.0215 72.8937C40.3209 71.3232 41.1369 69.3054 42.0001 68.0009Z" fill="#242424"/>
</g>
<defs>
<clipPath id="clip0_3608_1116">
<rect width="100" height="85.7143" fill="white" transform="translate(0 0.143066)"/>
</clipPath>
</defs>
</svg>
