<svg width="100" height="101" viewBox="0 0 100 101" fill="none" xmlns="http://www.w3.org/2000/svg">
<rect y="0.384766" width="100" height="100" rx="50" fill="black"/>
<path fill-rule="evenodd" clip-rule="evenodd" d="M41.2862 2.79323C40.6376 5.23917 40.02 6.95559 39.3686 8.12278C38.868 9.01997 38.3343 9.71239 37.1735 10.971C35.0431 13.2809 33.4368 14.7585 30.2781 17.3136C29.2338 18.1584 27.9762 19.3099 27.1065 20.2176C24.5391 22.8973 22.5374 25.9636 21.4296 28.9138C20.1338 32.3644 19.7031 36.3343 20.2174 40.0867C20.7477 43.9568 22.3387 47.8257 24.7326 51.067C25.5602 52.1877 26.4957 53.2756 27.5721 54.3693C28.9695 55.7893 31.0235 57.6197 32.6314 58.8777C32.9705 59.1431 33.2476 59.3673 33.2471 59.3759C33.2467 59.3846 33.1559 59.4282 33.0453 59.4728C32.6951 59.6143 32.2407 59.939 31.258 60.7498C29.8271 61.9304 28.4462 63.6232 27.4608 65.4047C26.4641 67.2065 25.9626 68.8304 25.8162 70.7292C25.7483 71.6097 25.8009 73.5865 25.9415 75.4355C26.0922 77.4181 26.5442 79.8911 27.1159 81.8613C27.4307 82.9458 27.6836 83.673 28.078 84.6271C28.3783 85.3538 28.8025 86.4465 29.3971 88.0257C30.0169 89.6719 30.1783 89.9992 30.5444 90.3529C31.3588 91.1397 33.1498 91.5314 34.4865 91.215C35.2961 91.0233 35.7143 90.6213 35.7143 90.0347C35.7143 89.3987 35.3331 88.7622 34.8149 88.5331C34.5629 88.4217 34.3435 88.4286 33.8265 88.5643C33.1467 88.7426 32.7364 88.7094 32.3497 88.4448C31.9059 88.1411 31.5669 87.517 30.9784 85.9205C30.6347 84.988 30.4676 84.308 30.3835 83.4995C30.3319 83.0038 30.363 82.0063 30.4444 81.5449C30.6162 80.5702 30.9788 79.6438 31.4368 79.0088C31.9937 78.2365 32.5271 77.6947 34.4804 75.9171C36.228 74.3267 36.4992 74.062 36.8949 73.561C37.5367 72.7483 37.8942 72.0762 38.9352 69.7252C39.4873 68.4786 39.6914 67.9872 39.8053 67.6304L39.8764 67.408L40.6465 68.147C41.4088 68.8784 42.1304 69.5203 42.8098 70.0716C43.6694 70.7689 44.1692 71.0658 45.7112 71.7945C47.8944 72.8262 49.2059 73.291 51.9036 73.9889C54.2143 74.5866 55.0999 74.6381 55.644 74.2063C55.9137 73.9924 56.0986 73.4514 56.6019 71.4039C56.881 70.2682 56.9326 70.095 57.0745 69.816C57.2653 69.4409 57.4165 69.3214 57.6656 69.3488C57.81 69.3647 58.4115 69.559 58.5572 69.6367C58.6029 69.6611 58.6543 69.717 58.6712 69.7609C58.7364 69.93 58.6241 70.1731 58.1492 70.8912C57.6107 71.7057 57.4613 72.0482 57.2296 73.0001C56.8056 74.7425 56.6795 75.7348 56.6787 77.3344C56.6782 78.411 56.7029 78.775 56.833 79.6047C57.0707 81.1211 57.5131 82.5759 58.2951 84.4133C58.6865 85.333 58.8502 85.5848 59.805 86.7362C60.9601 88.1292 61.4869 88.8339 61.7731 89.3689C61.8961 89.5987 61.9158 89.6595 61.9185 89.8171C61.9202 89.9173 61.9314 90.0136 61.9433 90.0309C62.0066 90.1235 62.1604 90.1524 62.7059 90.174C63.0608 90.188 63.5621 90.2347 64.1229 90.306C64.6002 90.3667 65.1277 90.4311 65.2952 90.4491C65.6927 90.4919 66.4339 90.4938 66.6654 90.4525C66.9459 90.4024 67.2157 90.2713 67.3136 90.1375C67.3882 90.0356 67.3961 90.0005 67.3961 89.7736C67.3961 89.5389 67.3887 89.5089 67.2818 89.3137C66.8818 88.5824 65.5558 88.2233 64.3056 88.5078C64.1297 88.5477 63.8824 88.5873 63.756 88.5956C63.3535 88.6221 63.2992 88.5727 62.8606 87.7801C62.3255 86.8131 62.1463 86.3988 62.0263 85.8517C61.7603 84.6387 61.741 83.0968 61.9774 81.9459C62.1587 81.0631 62.5051 80.1964 63.0133 79.354C64.0153 77.6931 65.5546 75.7623 67.2246 74.072C67.454 73.8398 67.4608 73.8355 67.7463 73.7451C70.0324 73.0215 72.4153 71.7501 74.1035 70.3535C76.4892 68.3799 77.5145 65.6653 77.4177 61.5794C77.3666 59.4206 76.9839 55.624 76.6216 53.6814C76.5806 53.4619 76.4454 52.8303 76.3211 52.2779C75.9948 50.8284 75.9376 50.3525 75.9373 49.0856C75.9371 48.3023 75.9645 47.9291 76.0634 47.3661C76.1965 46.6076 76.4181 45.9477 76.7955 45.1855C77.0019 44.7686 77.7851 43.3591 78.3366 42.4121C79.2008 40.9282 79.5857 40.0787 79.8166 39.1457C79.9499 38.6073 79.9939 38.2639 79.9957 37.7475C79.9973 37.2872 79.9633 37.0373 79.8477 36.6589C79.8347 36.6165 79.85 36.5941 79.9085 36.57C79.9515 36.5523 79.9866 36.5243 79.9866 36.5077C79.9866 36.4911 79.9324 36.3949 79.866 36.2938C79.6612 35.9819 79.639 35.8491 79.6786 35.1751C79.7302 34.2973 79.7378 34.3621 79.5653 34.2021C79.4842 34.1269 79.3437 34.0302 79.2532 33.9872C79.1075 33.9181 79.0563 33.909 78.8121 33.9088C78.5479 33.9086 78.5242 33.9137 78.2741 34.0258C77.9312 34.1793 77.7836 34.3213 77.1701 35.0878C77.1034 35.1713 77.0132 35.2316 76.8352 35.3121C76.6573 35.3925 76.5891 35.4381 76.5823 35.4813C76.5723 35.5448 76.4038 35.6235 76.1501 35.6832C76.0748 35.7009 75.9035 35.7683 75.7695 35.833C74.6753 36.3613 73.3147 36.6816 72.3443 36.6394C72.1683 36.6317 71.7603 36.5808 71.4377 36.5262C71.1151 36.4716 70.5875 36.3956 70.2654 36.3574C69.3577 36.2496 68.9269 36.1831 68.4314 36.0741C68.0397 35.9879 67.9248 35.9737 67.6245 35.9741C67.373 35.9744 67.2185 35.9891 67.0764 36.0264C66.7499 36.1119 66.1507 36.3359 65.5692 36.5896C64.6044 37.0106 64.408 37.1224 62.159 38.5309C60.1557 39.7855 59.5796 40.0798 58.7648 40.2648C58.3386 40.3615 58.0565 40.3894 57.5028 40.3894C57.0695 40.3894 56.9331 40.3773 56.4165 40.2932C54.4182 39.9676 53.0851 39.8628 52.2266 39.9639C51.6358 40.0335 50.6037 40.2675 50.6037 40.3319C50.6037 40.3798 50.826 40.8507 50.9551 41.0765C51.4082 41.8685 52.0382 42.5278 52.9026 43.1142C53.9763 43.8427 54.7529 44.1825 55.6669 44.3237C56.1564 44.3993 57.044 44.4434 57.7724 44.4282L58.3833 44.4154L58.9771 44.2751C59.707 44.1027 60.3361 43.986 60.4256 44.0063C60.6185 44.05 60.52 44.2597 60.0683 44.7673C59.9302 44.9224 59.6743 45.1774 59.4996 45.3339L59.182 45.6186L59.4257 45.9417C60.1811 46.9434 60.671 47.9495 61.0034 49.1819C61.2574 50.1235 61.3392 50.7632 61.3125 51.6006C61.2924 52.2313 61.2441 52.5633 61.0895 53.131C60.6769 54.646 59.7165 55.9908 58.2767 57.0695C56.6231 58.3084 55.2105 58.8788 52.5333 59.3885C50.8926 59.7009 48.6936 59.7863 46.8128 59.6105C44.3713 59.3824 42.8955 59.1023 41.4995 58.6019C39.9687 58.0532 38.4449 57.151 37.2103 56.0623C35.3015 54.3792 34.1887 52.378 33.8358 49.9937C33.7667 49.5267 33.7576 48.0549 33.8211 47.5995C34.0205 46.1686 34.501 45.0009 35.3832 43.8032C36.0214 42.9369 37.2621 41.6037 38.3318 40.6349C39.2249 39.8261 39.5286 39.5971 41.8497 37.9821C43.8057 36.6212 44.9387 35.809 46.6454 34.5441C48.6732 33.0411 49.0838 32.7152 50.0417 31.8475C51.8287 30.2288 52.9296 28.996 53.8287 27.6066C55.8061 24.5508 56.5989 20.7998 55.9924 17.3693C55.732 15.8964 55.2442 14.5025 54.5181 13.1561C54.1235 12.4244 53.8124 11.933 53.2916 11.2187C52.1008 9.58563 51.0225 8.50838 48.8986 6.82985C46.6339 5.04012 44.8839 3.93144 42.5957 2.83674C42.2691 2.68051 41.8699 2.49745 41.7085 2.42992L41.4152 2.30713L41.2862 2.79323ZM76.8653 38.1947C76.7761 39.1218 76.6081 39.8836 76.312 40.7039C76.0247 41.4999 75.7753 41.9552 75.1687 42.7914C74.1895 44.141 73.7527 45.2731 73.5791 46.9115C73.4647 47.9915 73.3976 49.488 73.4195 50.4753C73.4581 52.2154 73.6539 53.5472 74.0952 55.0711C75.0042 58.21 75.1054 58.7321 75.1365 60.4396C75.1868 63.2045 74.6941 65.0266 73.3846 66.9182C72.2098 68.6153 70.3666 70.2568 68.1117 71.6143C67.8856 71.7504 67.6801 71.8723 67.6549 71.8851C67.6298 71.898 67.7463 71.7795 67.9137 71.6217C69.3497 70.2696 70.3082 68.9419 71.0161 67.3246C71.9953 65.0872 72.2271 62.6605 71.6895 60.2723C71.3937 58.9577 71.0065 58.0024 70.308 56.8633C69.6128 55.7295 68.9974 54.5839 68.5695 53.6273C68.2129 52.8299 67.8325 51.8198 67.6728 51.2459C67.4957 50.6096 67.489 50.5386 67.4876 49.2782C67.4869 48.635 67.4748 48.0869 67.4607 48.0602C67.4226 47.9884 67.3095 47.9741 67.1966 48.0269C67.1418 48.0525 66.871 48.2776 66.5948 48.5273C66.0495 49.0201 65.64 49.3479 65.1886 49.6527C64.8311 49.8941 64.4615 50.1163 64.4439 50.1004C64.4367 50.0938 64.403 49.9155 64.3692 49.704C64.0864 47.9355 64.5003 46.2833 65.6002 44.7912C66.2435 43.9184 66.9043 43.3221 67.8681 42.7447C68.9974 42.0682 70.1471 41.5025 71.5371 40.9394C73.6009 40.1035 74.9138 39.3979 76.4241 38.313C76.667 38.1386 76.8699 37.9958 76.8751 37.9956C76.8803 37.9954 76.8759 38.085 76.8653 38.1947ZM41.5909 71.2511C41.4939 71.2989 41.4308 71.3778 41.2039 71.7342C40.311 73.1364 39.467 75.3053 39.1572 76.9935C39.0036 77.8308 38.9681 78.2211 38.9505 79.2644C38.9236 80.8674 39.0311 81.8234 39.3833 83.1135C39.7878 84.5952 40.4568 86.1217 41.4119 87.7424C41.8487 88.4836 42.2358 89.1969 42.3987 89.5608C42.5734 89.9509 42.6628 90.0631 42.8804 90.165C43.0172 90.2291 43.0818 90.2399 43.3874 90.2499C43.5799 90.2562 43.9704 90.245 44.2551 90.225C44.5988 90.2009 45.2211 90.1907 46.1066 90.1949C47.4869 90.2012 47.6036 90.1936 47.7528 90.0876C47.8539 90.0157 47.8589 89.8833 47.7696 89.6416C47.6232 89.245 47.3063 88.8777 46.98 88.7263L46.8128 88.6487L45.8232 88.6275C45.279 88.6159 44.762 88.5937 44.6743 88.5783C44.2301 88.5 44.0206 88.2991 43.4086 87.3644C42.8136 86.4558 42.5145 85.737 42.321 84.7509C42.2263 84.2684 42.2034 83.357 42.2745 82.8962C42.4735 81.6061 43.1344 80.5129 44.3818 79.4106C44.8291 79.0153 45.1773 78.7488 45.6558 78.4359C46.6315 77.7976 47.3744 77.1714 47.8647 76.5737C48.1204 76.262 48.3663 75.8814 48.4715 75.6346C48.5205 75.5194 48.5956 75.363 48.6383 75.2868C48.7289 75.1252 48.7374 75.0068 48.6626 74.9484C48.5826 74.8861 48.1609 74.6993 47.6822 74.5142C47.1009 74.2895 45.9088 73.7475 45.2863 73.4249C44.7444 73.144 44.3061 72.8933 43.3112 72.2948C42.5837 71.8571 42.3448 71.6886 42.1584 71.4819C41.9344 71.2333 41.7658 71.1647 41.5909 71.2511ZM73.6223 72.596C73.5298 72.6304 73.3723 72.7008 73.2721 72.7524C73.0072 72.889 72.2203 73.4326 71.6589 73.8667C71.391 74.0739 71.0655 74.3027 70.9356 74.3752C70.543 74.594 69.9934 74.7331 69.5199 74.7336C69.3634 74.7337 69.2993 74.7438 69.2997 74.7682C69.3006 74.8269 72.3948 90.3098 72.4078 90.3212C72.4223 90.3338 74.4444 90.4996 75.8152 90.6007C76.9089 90.6813 77.6324 90.6821 77.9041 90.603C78.1117 90.5425 78.3229 90.3713 78.3934 90.2061C78.4648 90.039 78.4601 89.7014 78.3832 89.4604L78.3272 89.2853L78.0075 89.183C77.0809 88.8866 76.3699 88.4078 75.8717 87.7447C75.4296 87.1563 74.9087 85.8257 74.5543 84.3794C74.2881 83.2932 74.1028 82.0761 73.9825 80.623C73.9295 79.9829 73.9293 77.2749 73.9823 76.5776C74.0366 75.8627 74.1297 74.9577 74.2187 74.2797C74.3145 73.5498 74.344 72.975 74.2941 72.81C74.2739 72.7432 74.2184 72.6534 74.1708 72.6104C74.0993 72.5458 74.0587 72.5323 73.9373 72.5329C73.8557 72.5332 73.7156 72.5613 73.6223 72.596Z" fill="white"/>
</svg>
