<svg width="18" height="18" viewBox="0 0 18 18" fill="none" xmlns="http://www.w3.org/2000/svg">
<rect width="18" height="18" fill="#ACACAC"/>
<g id="7">
<rect width="1512" height="982" transform="translate(-610 -224)" fill="white"/>
<g id="Frame 1000002215">
<g id="Frame 1000002870">
<g id="btn_google_light">
<path d="M-190 9C-190 -3.70255 -179.703 -14 -167 -14H316C328.703 -14 339 -3.70255 339 9C339 21.7025 328.703 32 316 32H-167C-179.703 32 -190 21.7025 -190 9Z" fill="#4285F4" fill-opacity="0.3"/>
<g id="Official Buttons / Sign in with Google/White/With Text">
<path d="M-187 9C-187 -2.04569 -178.046 -11 -167 -11H316C327.046 -11 336 -2.04569 336 9C336 20.0457 327.046 29 316 29H-167C-178.046 29 -187 20.0457 -187 9Z" fill="white"/>
<g id="logo googleg 48dp">
<path id="Shape" fill-rule="evenodd" clip-rule="evenodd" d="M17.64 9.20468C17.64 8.5665 17.5827 7.95286 17.4764 7.36377H9V10.8451H13.8436C13.635 11.9701 13.0009 12.9233 12.0477 13.5615V15.8197H14.9564C16.6582 14.2529 17.64 11.9456 17.64 9.20468Z" fill="#4285F4"/>
<path id="Shape_2" fill-rule="evenodd" clip-rule="evenodd" d="M8.99976 18C11.4298 18 13.467 17.1941 14.9561 15.8195L12.0475 13.5613C11.2416 14.1013 10.2107 14.4204 8.99976 14.4204C6.65567 14.4204 4.67158 12.8372 3.96385 10.71H0.957031V13.0418C2.43794 15.9831 5.48158 18 8.99976 18Z" fill="#34A853"/>
<path id="Shape_3" fill-rule="evenodd" clip-rule="evenodd" d="M3.96409 10.7098C3.78409 10.1698 3.68182 9.59301 3.68182 8.99983C3.68182 8.40664 3.78409 7.82983 3.96409 7.28983V4.95801H0.957273C0.347727 6.17301 0 7.54755 0 8.99983C0 10.4521 0.347727 11.8266 0.957273 13.0416L3.96409 10.7098Z" fill="#FBBC05"/>
<path id="Shape_4" fill-rule="evenodd" clip-rule="evenodd" d="M8.99976 3.57955C10.3211 3.57955 11.5075 4.03364 12.4402 4.92545L15.0216 2.34409C13.4629 0.891818 11.4257 0 8.99976 0C5.48158 0 2.43794 2.01682 0.957031 4.95818L3.96385 7.29C4.67158 5.16273 6.65567 3.57955 8.99976 3.57955Z" fill="#EA4335"/>
</g>
</g>
</g>
</g>
</g>
</g>
</svg>
